<?xml version="1.0" encoding="UTF-8"?>
<svg version="1.1" xmlns="http://www.w3.org/2000/svg" width="713" height="150">
<path d="M0 0 C2.50595176 2.19510629 4.85123359 4.47397531 7.17578125 6.859375 C7.88347656 7.53484375 8.59117188 8.2103125 9.3203125 8.90625 C20.16949536 19.94213007 25.17499093 35.69872138 25.265625 50.96875 C24.84229232 69.16554237 17.9238945 84.0673784 5.17578125 96.859375 C4.56089844 97.49746094 3.94601563 98.13554688 3.3125 98.79296875 C-8.48592382 110.13663533 -24.54350391 114.39372505 -40.52001953 114.20898438 C-58.91910232 113.59554345 -73.36770025 105.92850917 -85.82421875 92.859375 C-98.78115783 78.90947424 -101.4407114 63.02218606 -101.13671875 44.7421875 C-100.87592179 37.86801433 -99.70595659 32.16149327 -96.82421875 25.859375 C-96.18806641 24.44011719 -96.18806641 24.44011719 -95.5390625 22.9921875 C-92.03693471 15.94891099 -87.35271095 10.40689815 -81.82421875 4.859375 C-81.20933594 4.22128906 -80.59445313 3.58320313 -79.9609375 2.92578125 C-58.8027851 -17.4168535 -22.77862883 -17.26512946 0 0 Z M-79.8984375 17.2421875 C-89.91302764 30.75428092 -92.03237461 44.52458105 -90.82421875 60.859375 C-88.38335866 73.83080289 -80.60557769 85.85604714 -69.94921875 93.546875 C-57.25441503 101.9911864 -44.02314911 105.81910354 -28.6875 103.35546875 C-13.98545178 100.06115577 -2.0740081 92.2738375 6.421875 79.76171875 C13.70342645 67.71229174 16.99039018 53.6576989 13.9921875 39.72265625 C9.61804088 24.38174968 1.38887597 12.74177128 -12.26171875 4.36328125 C-35.4113431 -8.13899985 -62.74956069 -2.4580288 -79.8984375 17.2421875 Z " fill="#5F53FF" transform="translate(100.82421875,24.140625)"/>
<path d="M0 0 C7.78060981 -0.09314049 15.56108627 -0.1639863 23.3421154 -0.20724869 C26.95614345 -0.22802442 30.56978695 -0.25615513 34.18359375 -0.30175781 C37.67847537 -0.34557814 41.17298976 -0.36921218 44.66812515 -0.37950897 C46.63441341 -0.39037481 48.60055623 -0.42154181 50.56661987 -0.45318604 C60.10680093 -0.4555476 67.83356584 0.79729133 75 7.4375 C79.11296995 12.00531604 80.44696538 15.68284405 80.24609375 21.9453125 C79.65356565 26.89245192 78.08814863 30.10969657 74.25 33.25 C70.88079896 35.06418517 67.5506995 36.5797202 64 38 C64.78503906 38.268125 65.57007813 38.53625 66.37890625 38.8125 C73.6798435 41.53579438 78.71098855 44.36521854 83 51 C84.88922532 56.66767595 85.2079325 63.01805594 82.94140625 68.61328125 C79.2166831 74.61927116 74.55646314 78.76710444 67.66410828 80.63204956 C60.07676464 82.06853561 52.72716633 82.25979943 45.01953125 82.1953125 C43.72552902 82.1924826 42.43152679 82.18965271 41.09831238 82.18673706 C37.69696997 82.17918596 34.29580477 82.15961345 30.89453125 82.1373291 C27.40822749 82.11668436 23.92189445 82.10769597 20.43554688 82.09765625 C13.6236262 82.07635729 6.81182166 82.04232763 0 82 C0 81.01 0 80.02 0 79 C1.14339844 78.93941406 2.28679687 78.87882812 3.46484375 78.81640625 C4.95574305 78.73201572 6.44662775 78.64736698 7.9375 78.5625 C8.69224609 78.52318359 9.44699219 78.48386719 10.22460938 78.44335938 C13.91944187 78.55961976 13.91944187 78.55961976 17 77 C17.09439978 74.73008113 17.11742226 72.45718033 17.11352539 70.18530273 C17.11367142 69.47314606 17.11381744 68.76098938 17.1139679 68.0272522 C17.1132687 65.66266888 17.10547606 63.29816339 17.09765625 60.93359375 C17.09579209 59.29834537 17.09436818 57.66309643 17.09336853 56.02784729 C17.08954318 51.71565215 17.07971275 47.40349048 17.06866455 43.09130859 C17.0584508 38.69434054 17.05387099 34.29736711 17.04882812 29.90039062 C17.03809049 21.26691169 17.02101387 12.63346 17 4 C13.95786733 2.47893366 10.71952428 2.62570662 7.375 2.4375 C6.66859375 2.39431641 5.9621875 2.35113281 5.234375 2.30664062 C3.48981463 2.20055249 1.74493303 2.09977111 0 2 C0 1.34 0 0.68 0 0 Z M35 2 C33.81024205 5.56927385 33.87521845 8.79946972 33.90234375 12.51171875 C33.9037587 13.23994339 33.90517365 13.96816803 33.90663147 14.71846008 C33.91222341 17.04151539 33.92477438 19.36447388 33.9375 21.6875 C33.94251604 23.26367048 33.94707877 24.83984248 33.95117188 26.41601562 C33.9621902 30.27738098 33.97944926 34.13867408 34 38 C47.03982126 38.41857536 47.03982126 38.41857536 59.0625 34.125 C63.05204409 29.74937099 63.33905228 25.91339661 63.3125 20.125 C63.32861328 19.43019531 63.34472656 18.73539063 63.36132812 18.01953125 C63.36581092 13.25880646 62.49126225 10.04299737 60 6 C56.50898688 2.83626936 53.42581871 1.86932043 48.76953125 1.90234375 C47.56586914 1.90717773 47.56586914 1.90717773 46.33789062 1.91210938 C45.08782227 1.92467773 45.08782227 1.92467773 43.8125 1.9375 C42.5450293 1.94426758 42.5450293 1.94426758 41.25195312 1.95117188 C39.16793845 1.96294597 37.08396023 1.9808811 35 2 Z M34 40 C33.95057635 45.072007 33.91426932 50.14387394 33.89013672 55.21606445 C33.88007674 56.94167523 33.86642724 58.66726895 33.84912109 60.39282227 C33.82487246 62.8726014 33.81351699 65.35215523 33.8046875 67.83203125 C33.79436493 68.60400345 33.78404236 69.37597565 33.77340698 70.17134094 C33.77260578 73.99281476 33.82757405 75.74136107 36 79 C39.35170055 79.66265254 42.77818648 79.46285663 46.1875 79.4375 C47.12142578 79.45748047 48.05535156 79.47746094 49.01757812 79.49804688 C55.2199719 79.49368207 58.95010715 78.65496893 64 75 C68.36223157 69.18369124 68.54812066 63.04283336 68 56 C66.90637421 49.72920991 64.70779778 46.03247193 59.71875 42.09375 C56.51851227 40.05723508 53.79863272 39.88000829 50.11328125 39.90234375 C49.17548828 39.90556641 48.23769531 39.90878906 47.27148438 39.91210938 C46.29501953 39.92048828 45.31855469 39.92886719 44.3125 39.9375 C43.32443359 39.94201172 42.33636719 39.94652344 41.31835938 39.95117188 C38.87884526 39.96295697 36.43945311 39.97940989 34 40 Z " fill="#FFFFFF" transform="translate(149,29)"/>
<path d="M0 0 C7.65019455 -0.09315209 15.30032944 -0.16399231 22.95096397 -0.20724869 C26.50446139 -0.22802189 30.05756754 -0.25614773 33.61083984 -0.30175781 C37.70674143 -0.35399721 41.80223942 -0.37302984 45.8984375 -0.390625 C47.1592514 -0.41127014 48.42006531 -0.43191528 49.71908569 -0.45318604 C60.33064056 -0.45585662 68.58553145 1.7324411 76.37109375 9.15625 C80.75252708 14.11557022 81.50750817 19.26009157 81.28515625 25.640625 C80.57194856 31.54168585 77.37196077 35.2242157 73 39 C62.02389859 46.84007244 47.83284682 45.18332638 35 45 C35.33 55.56 35.66 66.12 36 77 C39.29960141 78.6498007 42.99127884 78.38258361 46.625 78.5625 C47.82769531 78.62727539 47.82769531 78.62727539 49.0546875 78.69335938 C51.0362511 78.79951457 53.01810271 78.90026855 55 79 C55 79.99 55 80.98 55 82 C36.85 82 18.7 82 0 82 C0 81.01 0 80.02 0 79 C5.94 78.67 11.88 78.34 18 78 C18 53.25 18 28.5 18 3 C12.06 2.67 6.12 2.34 0 2 C0 1.34 0 0.68 0 0 Z M35 3 C34.91131701 5.95705321 34.88479704 8.89065056 34.90234375 11.84765625 C34.9037587 12.7340831 34.90517365 13.62050995 34.90663147 14.53379822 C34.91224785 17.37673254 34.92480309 20.21958931 34.9375 23.0625 C34.94251289 24.98502491 34.94707616 26.90755104 34.95117188 28.83007812 C34.96222259 33.55341549 34.97949817 38.27669458 35 43 C36.88667274 43.02043943 38.77341092 43.03488207 40.66015625 43.046875 C41.71082275 43.05557617 42.76148926 43.06427734 43.84399414 43.07324219 C49.71209168 42.93705984 54.93844656 42.24552187 60 39.1875 C64.85937063 33.87256337 64.92994013 26.89213971 65 20 C64.44809117 14.88717794 63.33186082 10.02121134 60 6 C54.53357095 2.21608615 50.69479661 1.4326372 44.125 1.6875 C43.35414063 1.69716797 42.58328125 1.70683594 41.7890625 1.71679688 C38.09043159 1.46918786 38.09043159 1.46918786 35 3 Z " fill="#FFFFFF" transform="translate(455,29)"/>
<path d="M0 0 C0.69500359 0.00098694 1.39000717 0.00197388 2.10607147 0.00299072 C3.80972978 0.00555255 5.51338595 0.00947537 7.21704102 0.01367188 C7.22734848 0.97611313 7.23765594 1.93855438 7.24827576 2.93016052 C7.3458412 11.98034276 7.44855884 21.03045364 7.55638027 30.08051968 C7.61165109 34.73374956 7.66507759 39.38698568 7.71435547 44.0402832 C7.76193786 48.52717304 7.81427818 53.013984 7.86998177 57.50078011 C7.89043317 59.21645213 7.90914155 60.9321458 7.92611504 62.64785576 C7.95009767 65.04257956 7.98016014 67.4371529 8.01171875 69.83178711 C8.02035194 70.9064045 8.02035194 70.9064045 8.02915955 72.00273132 C7.79942277 75.29124136 7.79942277 75.29124136 9.21704102 78.01367188 C10.89888049 78.24654196 12.58828261 78.42631354 14.27954102 78.57617188 C15.65819336 78.70185547 15.65819336 78.70185547 17.06469727 78.83007812 C17.7749707 78.89066406 18.48524414 78.95125 19.21704102 79.01367188 C19.21704102 80.00367187 19.21704102 80.99367188 19.21704102 82.01367188 C11.19201757 82.81048271 3.28054215 83.14234477 -4.78295898 83.01367188 C-5.27795898 79.05367187 -5.27795898 79.05367187 -5.78295898 75.01367188 C-6.68014648 76.43679687 -6.68014648 76.43679687 -7.59545898 77.88867188 C-9.78295898 81.01367188 -9.78295898 81.01367188 -12.78295898 83.01367188 C-18.55882094 83.67685496 -23.96552166 83.85748206 -29.28295898 81.38867188 C-36.39892259 74.62850645 -39.80971894 68.96921948 -40.13745117 59.14648438 C-40.25000742 47.44063494 -37.9801007 41.8235577 -30.13452148 33.11523438 C-25.34524217 28.83511432 -20.596016 28.52705647 -14.38452148 28.61914062 C-11.78295898 29.01367188 -11.78295898 29.01367188 -8.65795898 31.38867188 C-6.78295898 34.01367187 -6.78295898 34.01367187 -5.78295898 36.01367188 C-5.75826324 31.92025689 -5.74010106 27.82687066 -5.72802734 23.73339844 C-5.72299468 22.34048711 -5.716168 20.94758107 -5.70751953 19.5546875 C-5.69540747 17.55405942 -5.69025486 15.55339299 -5.68530273 13.55273438 C-5.68006592 12.3482666 -5.6748291 11.14379883 -5.66943359 9.90283203 C-5.58208007 7.07230418 -5.58208007 7.07230418 -6.78295898 5.01367188 C-9.33237272 4.70125817 -11.78657412 4.50063767 -14.34545898 4.38867188 C-15.41183594 4.33066406 -15.41183594 4.33066406 -16.49975586 4.27148438 C-18.26038323 4.17695405 -20.02163626 4.09421371 -21.78295898 4.01367188 C-21.78295898 3.02367187 -21.78295898 2.03367187 -21.78295898 1.01367188 C-19.76277103 0.83935674 -17.74173851 0.67483702 -15.72045898 0.51367188 C-14.03243164 0.37445312 -14.03243164 0.37445312 -12.31030273 0.23242188 C-8.20794322 -0.0274803 -4.1086904 -0.01111559 0 0 Z M-22.09545898 32.57617188 C-27.0037268 39.66589205 -26.11614888 48.17935147 -26.09545898 56.45117188 C-26.11157227 57.73572266 -26.12768555 59.02027344 -26.14428711 60.34375 C-26.14785322 67.26557822 -25.89705569 72.77790158 -22.78295898 79.01367188 C-20.91331901 81.27665624 -20.91331901 81.27665624 -17.97045898 81.45117188 C-14.7191964 81.00492015 -13.1091473 80.42819587 -10.95092773 77.92773438 C-4.52418927 67.39562117 -4.34102391 53.72512129 -6.53295898 41.88867188 C-7.65786392 37.66420872 -9.6678729 34.12875796 -12.78295898 31.01367188 C-17.72611923 30.53774227 -17.72611923 30.53774227 -22.09545898 32.57617188 Z " fill="#FFFFFF" transform="translate(434.782958984375,27.986328125)"/>
<path d="M0 0 C0.33 2.31 0.66 4.62 1 7 C1.25910156 6.4946875 1.51820313 5.989375 1.78515625 5.46875 C3.35007589 3.05676376 4.60800356 1.63109064 7 0 C13.46212281 -1.10922374 19.56565598 -1.38862465 25.35546875 1.9140625 C28.85223302 4.67221925 30.59437961 6.78313882 32 11 C32.08544291 12.33528807 32.11774625 13.67443888 32.11352539 15.01245117 C32.11344986 15.81305466 32.11337433 16.61365814 32.11329651 17.43852234 C32.10813522 18.29798965 32.10297394 19.15745697 32.09765625 20.04296875 C32.0962413 20.9265657 32.09482635 21.81016266 32.09336853 22.72053528 C32.08777069 25.54289128 32.07521861 28.36516797 32.0625 31.1875 C32.05748472 33.10091031 32.05292186 35.01432187 32.04882812 36.92773438 C32.03780197 41.61852014 32.02053883 46.30924663 32 51 C35.3 51.33 38.6 51.66 42 52 C42 52.99 42 53.98 42 55 C20.22 55 -1.56 55 -24 55 C-24 54.01 -24 53.02 -24 52 C-18.555 51.505 -18.555 51.505 -13 51 C-13.33 35.49 -13.66 19.98 -14 4 C-17.3 4 -20.6 4 -24 4 C-24 3.01 -24 2.02 -24 1 C-15.97667603 0.09958689 -8.07029553 -0.11547323 0 0 Z M4.41210938 6.77734375 C-0.71767483 14.8516099 -0.41434916 24.14486287 -0.28125 33.37133789 C-0.24961459 35.58952358 -0.2402212 37.80699991 -0.234375 40.02539062 C-0.8438857 46.50734916 -0.8438857 46.50734916 1 52 C3.65653443 52.10002455 6.28129272 52.13877463 8.9375 52.125 C9.67935547 52.12886719 10.42121094 52.13273437 11.18554688 52.13671875 C15.22322878 52.21739668 15.22322878 52.21739668 19 51 C19.04950439 45.11011984 19.0857692 39.2203613 19.10986328 33.33032227 C19.11990963 31.32737111 19.13354909 29.32443458 19.15087891 27.3215332 C19.17518713 24.43957912 19.18649687 21.55781928 19.1953125 18.67578125 C19.20563507 17.78288895 19.21595764 16.88999664 19.22659302 15.970047 C19.22738556 11.56043331 19.18267692 7.96262648 17 4 C15.13104112 1.76366676 15.13104112 1.76366676 12.25 1.4375 C8.14527519 2.14793314 6.83410933 3.48720712 4.41210938 6.77734375 Z " fill="#FFFFFF" transform="translate(351,56)"/>
<path d="M0 0 C7.71536878 5.51260816 12.56132605 11.15277737 14.51953125 20.47265625 C15.69411053 28.82378587 14.31622034 36.08391406 9.5390625 43.08203125 C4.51246027 49.34614722 -1.00429353 53.56619803 -9 55 C-17.38425234 55.86147889 -24.69007376 55.07942955 -31.640625 50.11328125 C-38.6458964 44.24483021 -42.42714931 39.37256084 -43.40234375 30.2265625 C-43.93426718 20.54969195 -42.54283143 13.12276736 -35.98046875 5.72265625 C-26.38080714 -3.57438906 -12.14948439 -6.59842687 0 0 Z M-29.4375 14.5625 C-33.55813336 19.60381983 -33.52050413 24.72448792 -33 31 C-30.93699844 37.31035772 -26.19135724 41.24475352 -20.5 44.375 C-14.26357826 45.93410544 -9.61933917 45.01779326 -4 42 C0.16914891 38.39937139 3.54893624 34.7251769 4.46875 29.16796875 C4.54149258 22.23014511 3.95792183 17.13101636 -1 12 C-10.79594474 4.64768261 -21.38856271 5.47374784 -29.4375 14.5625 Z " fill="#6257FF" transform="translate(77,49)"/>
<path d="M0 0 C6.20176654 2.82119576 10.95056487 7.72299152 14.3671875 13.53125 C16.96987623 22.35147292 17.59598749 30.9912255 13.48828125 39.3984375 C9.76524242 45.91068363 4.75955835 51.06297741 -2.5078125 53.34375 C-10.5063639 54.11404722 -18.97690651 54.67906679 -25.5078125 49.34375 C-31.24070011 43.9829768 -35.00094524 38.48738985 -35.9765625 30.51171875 C-36.0500097 21.15638181 -35.40834995 13.6887548 -28.828125 6.51171875 C-20.59876143 -1.00443331 -10.83826149 -2.83618058 0 0 Z M-18.53515625 5.34765625 C-21.92966716 12.31390152 -21.84277601 19.09912848 -21.8203125 26.71875 C-21.83642578 27.80414063 -21.85253906 28.88953125 -21.86914062 30.0078125 C-21.87350552 37.23607332 -21.52058811 44.5198425 -16.8828125 50.40625 C-13.07167453 51.91064657 -9.53198035 52.09828147 -5.5078125 51.34375 C-0.87188803 48.08873921 0.40164047 44.79648515 1.4921875 39.34375 C3.27074525 28.05197638 4.45860887 12.99215926 -2.5078125 3.34375 C-8.1227905 -0.39956867 -14.24593528 -0.32518438 -18.53515625 5.34765625 Z " fill="#FFFFFF" transform="translate(572.5078125,57.65625)"/>
<path d="M0 0 C0.33 26.07 0.66 52.14 1 79 C4.96 79.33 8.92 79.66 13 80 C13 80.99 13 81.98 13 83 C0.46 83 -12.08 83 -25 83 C-25 82.01 -25 81.02 -25 80 C-19.555 79.505 -19.555 79.505 -14 79 C-14 54.58 -14 30.16 -14 5 C-17.63 4.67 -21.26 4.34 -25 4 C-25 3.01 -25 2.02 -25 1 C-23.27159593 0.82560247 -21.54219325 0.66110985 -19.8125 0.5 C-18.84957031 0.4071875 -17.88664063 0.314375 -16.89453125 0.21875 C-11.271412 -0.0970922 -5.63198246 0 0 0 Z " fill="#FFFFFF" transform="translate(263,28)"/>
<path d="M0 0 C1.7634375 -0.01160156 1.7634375 -0.01160156 3.5625 -0.0234375 C8.92584622 0.59822308 12.81700908 2.58136817 16.25 6.75 C16.72953125 7.31460938 17.2090625 7.87921875 17.703125 8.4609375 C22.13537061 15.00250481 21.3560176 20.00322884 22 28.375 C11.44 28.375 0.88 28.375 -10 28.375 C-8.98016476 42.22736991 -8.98016476 42.22736991 -5 49.375 C-0.71225221 52.23349852 2.97116875 52.21561824 8 51.375 C12.5061767 49.25044354 15.85473139 46.37856965 17.9375 41.8125 C18.80921699 38.99223914 19.55816719 36.29109656 20 33.375 C20.66 33.375 21.32 33.375 22 33.375 C21.72980587 39.45436783 21.03723846 43.55274296 17 48.375 C10.47264831 54.24961652 5.3572011 54.91976511 -3.29296875 54.68359375 C-9.94469095 54.12986767 -13.82629499 51.89714812 -18.3125 47.0625 C-24.06006443 40.26094095 -24.62097172 32.87661692 -24.34375 24.328125 C-23.62944415 16.11360773 -20.88216792 10.54334679 -14.9765625 4.84765625 C-10.0801958 1.19957276 -6.09322315 -0.04008699 0 0 Z M-5.8125 4.4375 C-10.85789512 11.21274487 -10.18210161 18.27147843 -10 26.375 C-3.4 26.375 3.2 26.375 10 26.375 C10.02878386 13.3484319 10.02878386 13.3484319 4 2.375 C-0.29785664 1.80735856 -2.27276535 1.84169459 -5.8125 4.4375 Z " fill="#FFFFFF" transform="translate(302,56.625)"/>
<path d="M0 0 C0.99 0 1.98 0 3 0 C3 8.58 3 17.16 3 26 C7.95 26 12.9 26 18 26 C18 27.65 18 29.3 18 31 C13.05 31 8.1 31 3 31 C3.1205929 35.677465 3.24354819 40.35475144 3.37231445 45.03198242 C3.41533386 46.61951145 3.45702837 48.207077 3.49731445 49.79467773 C3.02061608 63.2878654 3.02061608 63.2878654 6 76 C8.91634129 76.2502157 8.91634129 76.2502157 12 76 C15.44554693 70.83167961 15.25356398 65.22947814 15.5625 59.1875 C15.62727539 58.00510742 15.62727539 58.00510742 15.69335938 56.79882812 C15.79878321 54.86605785 15.89983094 52.93304974 16 51 C16.99 51 17.98 51 19 51 C19.08149592 54.02138567 19.14073421 57.04053905 19.1875 60.0625 C19.21263672 60.91005859 19.23777344 61.75761719 19.26367188 62.63085938 C19.32832196 68.21231648 18.73692445 72.09395128 16 77 C10.74556409 80.50295727 4.10687839 79.66393403 -2 79 C-5.40602013 77.43381297 -7.30509996 75.38980009 -9 72 C-9.08711775 68.93757679 -9.1154846 65.89813535 -9.09765625 62.8359375 C-9.0962413 61.92872955 -9.09482635 61.02152161 -9.09336853 60.08682251 C-9.08776096 57.18284845 -9.07520718 54.27895085 -9.0625 51.375 C-9.05748598 49.40885528 -9.0529229 47.44270935 -9.04882812 45.4765625 C-9.03778906 40.6510121 -9.02051935 35.82551903 -9 31 C-12.3 31 -15.6 31 -19 31 C-19 30.01 -19 29.02 -19 28 C-18.34773437 27.74347656 -17.69546875 27.48695312 -17.0234375 27.22265625 C-8.82208781 23.63002962 -5.17122064 19.06618149 -1.6875 10.9375 C-0.83458882 7.29324313 -0.38515674 3.72318177 0 0 Z " fill="#FFFFFF" transform="translate(654,32)"/>
<path d="M0 0 C1.67988434 0.63262217 3.35038319 1.29219594 5 2 C7.1182079 1.76230794 7.1182079 1.76230794 9 1 C9.99 0.67 10.98 0.34 12 0 C12 6.6 12 13.2 12 20 C9.35281082 18.67640541 9.21216047 17.46340877 8.125 14.75 C5.8304693 9.40459329 3.54994576 5.2923689 -2 3 C-6.07083084 2.44814441 -9.76215866 2.41202536 -13.5 4.1875 C-15.45142457 6.54547136 -15.92699082 7.93361457 -16 11 C-14.60005706 13.98869397 -13.66187668 15.64465283 -10.72265625 17.22265625 C-9.84480469 17.49980469 -8.96695313 17.77695313 -8.0625 18.0625 C-6.60650391 18.54396484 -6.60650391 18.54396484 -5.12109375 19.03515625 C-3.57615234 19.51275391 -3.57615234 19.51275391 -2 20 C11.54159619 24.19575581 11.54159619 24.19575581 15 28 C17.99174771 34.23901836 17.96294209 40.88459911 15.9375 47.4375 C13.31965745 50.89980789 11.15322219 52.83944498 7 54 C-1.25561483 54.83839405 -9.20953739 55.43237009 -16 50 C-17.65 51.32 -19.3 52.64 -21 54 C-21 46.74 -21 39.48 -21 32 C-20.34 32 -19.68 32 -19 32 C-18.69707031 32.88042969 -18.39414062 33.76085937 -18.08203125 34.66796875 C-15.05944079 43.37800744 -15.05944079 43.37800744 -9 50 C-8.67 50.33 -8.34 50.66 -8 51 C-5.87991884 51.17813354 -3.75208388 51.26789228 -1.625 51.3125 C0.11910156 51.36857422 0.11910156 51.36857422 1.8984375 51.42578125 C5.06073428 51.30421093 5.06073428 51.30421093 6.88671875 49.1640625 C8.42093927 46.18175314 8.47357678 44.31503744 8 41 C5.31517663 36.48112846 2.75205102 35.25646174 -2.1015625 33.97851562 C-2.85179687 33.79998047 -3.60203125 33.62144531 -4.375 33.4375 C-11.24549174 31.74969691 -16.41233429 29.79195511 -21.375 24.4375 C-23.67768515 19.56643525 -23.77379561 15.29813119 -23 10 C-18.21399886 -0.12423318 -10.2597533 -1.10430386 0 0 Z " fill="#FFFFFF" transform="translate(616,57)"/>
<path d="M0 0 C17.49 0 34.98 0 53 0 C51.87174633 6.76952201 51.87174633 6.76952201 49.125 8.8125 C45.45667164 11.38032986 43.07454091 12.1263183 38.7121582 12.11352539 C37.85149246 12.11344986 36.99082672 12.11337433 36.1040802 12.11329651 C35.17899155 12.10813522 34.25390289 12.10297394 33.30078125 12.09765625 C32.35059616 12.0962413 31.40041107 12.09482635 30.4214325 12.09336853 C27.38508971 12.08776875 24.34882052 12.07521632 21.3125 12.0625 C19.25455836 12.05748497 17.19661556 12.05292207 15.13867188 12.04882812 C10.09241954 12.0377994 5.04622225 12.02053493 0 12 C0 8.04 0 4.08 0 0 Z " fill="#FFFFFF" transform="translate(446,129)"/>
<path d="M0 0 C5.28 0 10.56 0 16 0 C16 3.96 16 7.92 16 12 C10.72 12 5.44 12 0 12 C0 8.04 0 4.08 0 0 Z " fill="#FFFFFF" transform="translate(368,129)"/>
<path d="M0 0 C2.36002096 1.54622063 2.90125807 2.7319862 3.875 5.375 C4.04466185 8.93789883 3.36604164 10.33820316 1 13 C-2.6365931 14.05791799 -4.874103 14.43303731 -8.4375 13.0625 C-10.52711076 10.3042138 -10.57030531 8.27486957 -10.3828125 4.875 C-10 3 -10 3 -8.375 1 C-5.34303035 -0.2766188 -3.25996064 -0.41616519 0 0 Z " fill="#746AFF" transform="translate(94,40)"/>
</svg>
